HIERARCHY
ROOT Hips
{
	OFFSET 0.00000 0.00000 0.00000
	CHANNELS 6 Xposition Yposition Zposition Zrotation Yrotation Xrotation 
	JOINT LHipJoint
	{
		OFFSET 0 0 0
		CHANNELS 3 Zrotation Yrotation Xrotation
		JOINT LeftUpLeg
		{
			OFFSET 1.88772 -1.62769 0.85636
			CHANNELS 3 Zrotation Yrotation Xrotation
			JOINT LeftLeg
			{
				OFFSET 2.39836 -6.58946 0.00000
				CHANNELS 3 Zrotation Yrotation Xrotation
				JOINT LeftFoot
				{
					OFFSET 2.78523 -7.65237 0.00000
					CHANNELS 3 Zrotation Yrotation Xrotation
					JOINT LeftToeBase
					{
						OFFSET 0.19551 -0.53715 1.90694
						CHANNELS 3 Zrotation Yrotation Xrotation
						End Site
						{
							OFFSET 0.00000 -0.00000 0.99735
						}
					}
				}
			}
		}
	}
	JOINT RHipJoint
	{
		OFFSET 0 0 0
		CHANNELS 3 Zrotation Yrotation Xrotation
		JOINT RightUpLeg
		{
			OFFSET -1.74282 -1.62769 0.85636
			CHANNELS 3 Zrotation Yrotation Xrotation
			JOINT RightLeg
			{
				OFFSET -2.36062 -6.48575 0.00000
				CHANNELS 3 Zrotation Yrotation Xrotation
				JOINT RightFoot
				{
					OFFSET -2.76258 -7.59014 0.00000
					CHANNELS 3 Zrotation Yrotation Xrotation
					JOINT RightToeBase
					{
						OFFSET -0.19308 -0.53048 2.03952
						CHANNELS 3 Zrotation Yrotation Xrotation
						End Site
						{
							OFFSET -0.00000 -0.00000 1.06031
						}
					}
				}
			}
		}
	}
	JOINT LowerBack
	{
		OFFSET 0 0 0
		CHANNELS 3 Zrotation Yrotation Xrotation
		JOINT Spine
		{
			OFFSET -0.08299 2.03160 -0.30721
			CHANNELS 3 Zrotation Yrotation Xrotation
			JOINT Spine1
			{
				OFFSET -0.01030 2.00603 0.13891
				CHANNELS 3 Zrotation Yrotation Xrotation
				JOINT Neck
				{
					OFFSET 0 0 0
					CHANNELS 3 Zrotation Yrotation Xrotation
					JOINT Neck1
					{
						OFFSET 0.04282 1.69578 0.19991
						CHANNELS 3 Zrotation Yrotation Xrotation
						JOINT Head
						{
							OFFSET -0.08665 1.66622 -0.03785
							CHANNELS 3 Zrotation Yrotation Xrotation
							End Site
							{
								OFFSET -0.03699 1.83329 -0.04094
							}
						}
					}
				}
				JOINT LeftShoulder
				{
					OFFSET 0 0 0
					CHANNELS 3 Zrotation Yrotation Xrotation
					JOINT LeftArm
					{
						OFFSET 3.04219 1.50803 -0.05347
						CHANNELS 3 Zrotation Yrotation Xrotation
						JOINT LeftForeArm
						{
							OFFSET 5.79199 -0.00000 0.00000
							CHANNELS 3 Zrotation Yrotation Xrotation
							JOINT LeftHand
							{
								OFFSET 3.49908 -0.00000 0.00000
								CHANNELS 3 Zrotation Yrotation Xrotation
								JOINT LeftFingerBase
								{
									OFFSET 0 0 0
									CHANNELS 3 Zrotation Yrotation Xrotation
									JOINT LeftHandIndex1
									{
										OFFSET 0.59386 -0.00000 0.00000
										CHANNELS 3 Zrotation Yrotation Xrotation
										End Site
										{
											OFFSET 0.47879 -0.00000 0.00000
										}
									}
								}
								JOINT LThumb
								{
									OFFSET 0 0 0
									CHANNELS 3 Zrotation Yrotation Xrotation
									End Site
									{
										OFFSET 0.48610 -0.00000 0.48610
									}
								}
							}
						}
					}
				}
				JOINT RightShoulder
				{
					OFFSET 0 0 0
					CHANNELS 3 Zrotation Yrotation Xrotation
					JOINT RightArm
					{
						OFFSET -3.30316 1.18853 0.11175
						CHANNELS 3 Zrotation Yrotation Xrotation
						JOINT RightForeArm
						{
							OFFSET -5.73799 -0.00000 0.00000
							CHANNELS 3 Zrotation Yrotation Xrotation
							JOINT RightHand
							{
								OFFSET -3.57916 -0.00000 -0.00000
								CHANNELS 3 Zrotation Yrotation Xrotation
								JOINT RightFingerBase
								{
									OFFSET 0 0 0
									CHANNELS 3 Zrotation Yrotation Xrotation
									JOINT RightHandIndex1
									{
										OFFSET -0.61558 -0.00000 0.00000
										CHANNELS 3 Zrotation Yrotation Xrotation
										End Site
										{
											OFFSET -0.49629 -0.00000 0.00000
										}
									}
								}
								JOINT RThumb
								{
									OFFSET 0 0 0
									CHANNELS 3 Zrotation Yrotation Xrotation
									End Site
									{
										OFFSET -0.50387 -0.00000 0.50387
									}
								}
							}
						}
					}
				}
			}
		}
	}
}
MOTION
Frames: 12
Frame Time: 0.0240964
0.00 0.00 0.00 8.6837 -59.3058 -3.9066 0.0000 0.0000 0.0000 -17.4459 -8.1224 -7.3558 1.4022 7.4905 21.1768 1.0219 6.6471 -22.6003 0.0333 1.1780 3.2387 0.0000 0.0000 0.0000 12.7780 13.8224 2.7837 -0.8345 -5.8276 16.2849 0.3827 -21.2283 -27.0890 -0.3574 3.8408 -10.6291 -6.9949 0.3113 0.5966 -2.4356 -0.3023 -7.8971 1.3610 0.1750 -8.6845 4.4472 1.9320 -5.7514 -5.6941 2.0470 -6.5083 -2.5558 0.9195 -0.9527 -0.0000 -0.0000 0.0000 11.5350 -21.5727 -16.2913 100.9534 -59.5418 -69.4713 -0.0000 0.0000 -28.6561 39.8339 -35.9989 -26.1188 -7.1250 0.0000 -0.0000 3.2616 -13.3720 -3.9330 -0.0000 -0.0000 0.0000 -13.1111 22.9685 -11.2057 -108.2933 58.6970 -75.7731 0.0000 -0.0000 -3.2565 -36.1898 -17.3814 12.3285 7.1250 -0.0000 -0.0000 -8.3948 -50.9897 1.2463
0.00 0.00 0.00 9.0766 -59.3778 -4.0243 0.0000 0.0000 0.0000 -17.6823 -8.7130 -7.0642 1.3457 7.3443 20.7394 0.9384 7.9912 -22.8594 0.0013 0.2339 0.6426 0.0000 0.0000 0.0000 12.6557 14.7925 2.8737 -0.8402 -5.8469 16.3408 0.2724 -21.3156 -28.0955 -0.1875 2.7885 -7.6905 -6.9268 0.1726 1.1236 -2.3950 -0.5732 -8.3382 1.3827 0.0631 -9.4683 5.0059 1.8398 -5.8689 -6.9441 1.8791 -5.8882 -3.0794 0.8273 -0.7264 -0.0000 0.0000 0.0000 12.7588 -19.2710 -21.3488 85.7379 -59.9312 -56.3098 -0.0000 0.0000 -31.6336 39.5950 -35.8118 -25.8256 -7.1250 0.0000 -0.0000 3.1933 -13.0793 -3.8383 -0.0000 0.0000 0.0000 -15.8794 20.4540 -15.2674 -91.9444 59.9857 -61.6839 0.0000 -0.0000 -4.1239 -35.7983 -16.9081 11.8458 7.1250 -0.0000 -0.0000 -7.9954 -50.3549 1.0611
0.00 0.00 0.00 9.7586 -60.0737 -4.8788 0.0000 0.0000 0.0000 -18.1450 -9.1643 -6.1760 1.3410 7.3320 20.7028 1.0988 7.9221 -24.1539 0.0565 1.5336 4.2182 0.0000 0.0000 0.0000 12.3823 14.9357 2.9431 -0.8604 -5.9150 16.5379 0.5836 -22.0533 -26.7728 -0.6423 5.1270 -14.2711 -7.0121 0.2024 1.9831 -2.4622 -0.6644 -8.7101 1.3617 0.0492 -10.4014 4.9604 1.7219 -6.3591 -6.7929 1.7711 -4.7760 -3.0090 0.7655 -0.2957 -0.0000 -0.0000 0.0000 13.7137 -17.9147 -24.6249 70.5218 -58.5167 -43.2154 -0.0000 0.0000 -30.8333 39.8109 -36.1007 -26.1556 -7.1250 0.0000 -0.0000 3.2198 -13.4708 -3.8866 -0.0000 -0.0000 0.0000 -17.8340 19.0937 -17.8088 -73.5426 58.9514 -45.7976 0.0000 -0.0000 -4.2467 -35.7863 -15.5924 10.9658 7.1250 -0.0000 -0.0000 -8.0009 -48.7978 0.7539
0.00 0.00 0.00 9.0635 -60.4106 -3.8513 0.0000 0.0000 0.0000 -17.6935 -9.9581 -6.0652 1.3274 7.2962 20.5959 1.1054 8.7294 -24.8117 0.0167 0.8342 2.2926 0.0000 0.0000 0.0000 12.9699 16.0827 3.1446 -0.8553 -5.8978 16.4882 0.1736 -21.1227 -28.5601 -0.1971 2.8590 -7.8863 -6.4033 0.2943 2.8411 -2.3693 -0.6223 -9.3740 1.1081 0.0589 -11.6820 6.7611 1.7733 -3.6888 -7.7345 1.6971 -7.9290 -3.7496 0.7407 -1.7690 0.0000 -0.0000 0.0000 15.0740 -15.7989 -31.1784 40.8572 -48.5696 -19.0794 -0.0000 0.0000 -31.4771 38.4598 -34.0071 -23.9529 -7.1250 0.0000 -0.0000 3.1066 -10.7160 -3.6349 0.0000 -0.0000 0.0000 -20.6954 14.6537 -23.7187 -38.9036 47.4067 -17.6278 0.0000 -0.0000 -2.4211 -32.6247 -19.6173 12.1293 7.1250 -0.0000 -0.0000 -4.4750 -52.8629 0.8672
0.00 0.00 0.00 9.4026 -60.6516 -2.6006 0.0000 0.0000 0.0000 -17.6010 -9.3929 -8.2606 1.3687 7.4043 20.9187 1.1423 8.1197 -24.6487 0.0471 1.4004 3.8513 0.0000 0.0000 0.0000 12.0925 16.8928 1.7511 -0.8355 -5.8309 16.2946 -0.4703 -18.8475 -30.1473 -0.0488 -1.4261 3.9221 -5.9585 1.0589 8.8363 -1.0684 0.1122 -10.2093 2.1201 0.5978 -16.5573 8.7976 6.0829 -1.2093 -14.8385 7.8569 -2.4548 -5.7892 3.8751 0.4556 0.0000 0.0000 0.0000 6.4426 -8.2240 -43.8214 23.6475 -34.7893 -7.5045 -0.0000 0.0000 -50.7672 35.9034 -22.7576 -15.6452 -7.1250 0.0000 -0.0000 4.2146 2.6652 -4.0251 0.0000 0.0000 0.0000 -4.0636 -9.9092 -36.9149 -29.3947 40.3689 -11.0155 0.0000 -0.0000 -36.1774 -30.5533 -24.1045 13.5542 7.1250 -0.0000 -0.0000 -1.3718 -57.4287 0.4176
0.00 0.00 0.00 8.4313 -60.3833 -1.5548 0.0000 0.0000 0.0000 -16.9934 -9.7091 -8.7691 1.3185 7.2727 20.5260 0.9620 8.7675 -23.6694 0.0265 1.0510 2.8891 0.0000 0.0000 0.0000 12.3585 16.5432 0.8447 -0.8320 -5.8192 16.2606 -0.2385 -19.4775 -29.3167 -0.0093 -0.6226 1.7110 -6.2251 0.8539 8.1748 -0.8995 -0.0809 -9.5523 2.5140 0.5183 -15.2938 9.0561 5.5500 -0.9871 -13.6929 7.2026 -2.0812 -5.5038 3.5574 0.4076 0.0000 0.0000 0.0000 6.0272 -11.2513 -33.2075 39.3625 -47.6876 -17.9664 -0.0000 0.0000 -57.8168 37.9497 -26.3782 -19.1108 -7.1250 0.0000 -0.0000 4.6866 -2.0908 -4.8705 0.0000 0.0000 0.0000 0.2950 -10.0800 -28.4836 -71.1437 58.6129 -43.7460 0.0000 -0.0000 -39.6842 -34.6071 -21.9959 14.4908 7.1250 -0.0000 -0.0000 -6.3702 -56.0074 1.7251
0.00 0.00 0.00 9.7651 -60.4417 -2.6807 0.0000 0.0000 0.0000 -17.6503 -9.3294 -9.0903 1.3290 7.3005 20.6088 0.9980 8.3557 -23.6486 0.0358 1.2216 3.3588 0.0000 0.0000 0.0000 11.6054 15.8398 0.0640 -0.8682 -5.9410 16.6134 0.5297 -21.5809 -26.4382 -0.3813 3.9654 -10.9793 -6.9590 1.1204 7.9204 -1.1536 0.1808 -9.2501 2.5885 0.6840 -14.8093 6.6128 4.4859 -1.3441 -10.5087 5.7941 -1.9722 -4.6027 2.8594 0.1650 0.0000 0.0000 0.0000 3.9498 -11.8659 -30.2449 48.8818 -52.5345 -25.2839 -0.0000 0.0000 -60.4585 34.5811 -25.5318 -16.5480 -7.1250 0.0000 -0.0000 2.8956 -0.1066 -2.9046 0.0000 0.0000 0.0000 2.6775 -11.6521 -26.9526 -89.9692 60.0000 -59.9733 0.0000 -0.0000 -37.2325 -31.6751 -21.3505 12.6606 7.1250 -0.0000 -0.0000 -3.2019 -54.6216 0.7574
0.00 0.00 0.00 9.4862 -59.9261 -2.3585 0.0000 0.0000 0.0000 -17.4888 -9.3559 -9.8758 1.4173 7.5290 21.2923 0.9055 8.3016 -22.8157 0.0086 0.5987 1.6453 0.0000 0.0000 0.0000 11.6105 15.3642 0.1704 -0.8139 -5.7569 16.0806 0.2462 -20.8219 -27.5571 -0.1269 2.2965 -6.3257 -6.9264 1.0261 7.8213 -1.0790 0.0929 -9.0722 2.6750 0.6359 -14.5183 6.8021 3.5686 -1.4174 -10.6275 4.5735 -1.7140 -4.7071 2.2454 0.1533 0.0000 -0.0000 0.0000 1.5393 -11.1036 -25.2887 59.8894 -56.2804 -34.2491 -0.0000 0.0000 -61.0487 36.7689 -24.0210 -16.9189 -7.1250 0.0000 -0.0000 4.4887 0.9688 -4.4258 0.0000 -0.0000 0.0000 4.9209 -12.5420 -25.9580 -105.6891 59.0492 -73.5438 0.0000 -0.0000 -34.9535 -31.5963 -19.6939 11.7110 7.1250 -0.0000 -0.0000 -3.3753 -52.7420 0.6436
0.00 0.00 0.00 9.6294 -58.9302 -2.4326 0.0000 0.0000 0.0000 -17.5997 -9.8628 -9.8199 1.3749 7.4203 20.9667 0.9124 7.2478 -22.0683 0.0124 0.7193 1.9768 0.0000 0.0000 0.0000 11.4557 14.8040 -0.5250 -0.8875 -6.0050 16.7988 0.4193 -21.5399 -27.2844 -0.2197 3.0173 -8.3270 -7.1053 0.8279 7.9122 -1.2795 -0.2133 -8.7978 2.6162 0.4849 -14.2158 5.6975 2.1718 -1.9244 -8.7131 2.7407 -1.1749 -3.8186 1.3246 0.1861 0.0000 0.0000 0.0000 -1.7888 -10.5745 -20.3238 76.6889 -59.3198 -48.4985 -0.0000 0.0000 -60.3148 36.4781 -27.1997 -18.6732 -7.1250 0.0000 -0.0000 3.6597 -2.5453 -3.8263 0.0000 0.0000 0.0000 8.4342 -13.7205 -25.4484 -121.0563 56.0218 -86.5363 0.0000 -0.0000 -32.2328 -29.3836 -18.2621 10.0071 7.1250 -0.0000 -0.0000 -1.3011 -50.7172 0.1833
0.00 0.00 0.00 8.5048 -58.0912 -1.3630 0.0000 0.0000 0.0000 -17.0042 -10.6552 -10.1459 1.3921 7.4646 21.0992 0.7549 8.2525 -21.4132 0.0200 -0.9124 -2.5078 0.0000 0.0000 0.0000 12.1206 15.0996 0.6067 -0.7840 -5.6529 15.7804 -0.1994 -20.0934 -29.8379 -0.0087 -0.6026 1.6559 -6.6413 0.5813 8.0014 -0.9530 -0.4329 -8.7015 2.7654 0.3562 -14.1195 2.8380 0.6189 -2.4909 -5.7330 0.7782 0.1217 -2.2800 0.3440 0.5011 -0.0000 -0.0000 0.0000 -5.9079 -8.7697 -14.3736 96.7830 -59.8254 -65.8708 -0.0000 0.0000 -59.2853 34.5524 -28.7368 -18.3189 -7.1250 0.0000 -0.0000 2.2282 -3.6513 -2.3673 -0.0000 -0.0000 0.0000 11.1628 -13.9503 -25.0288 -131.1787 52.5089 -94.7641 0.0000 -0.0000 -30.1521 -27.3335 -16.9352 8.5622 7.1250 -0.0000 -0.0000 0.5283 -48.8989 -0.0508
0.00 0.00 0.00 7.6898 -56.8150 -0.3872 0.0000 0.0000 0.0000 -16.4180 -10.9535 -10.8482 1.4237 7.5453 21.3413 0.6611 8.0594 -20.3449 0.0413 -1.3118 -3.6071 0.0000 0.0000 0.0000 12.6725 14.1987 0.3280 -0.7755 -5.6229 15.6940 0.2367 -21.7499 -29.0130 -0.0545 1.5069 -4.1446 -6.3724 0.4098 7.4320 -0.7875 -0.5438 -8.5286 2.8184 0.2693 -13.5338 2.0456 -1.1926 -0.8230 -4.1221 -1.6349 -0.8570 -1.6193 -0.8231 -0.1795 0.0000 0.0000 0.0000 -10.8735 -8.5467 -8.3477 113.8418 -57.7393 -80.4909 -0.0000 0.0000 -56.5374 32.7443 -28.9068 -17.2682 -7.1250 0.0000 -0.0000 1.1606 -3.2994 -1.2257 0.0000 0.0000 0.0000 13.9138 -13.9496 -25.0889 -135.2779 50.6316 -97.9763 0.0000 -0.0000 -30.1805 -27.4233 -16.0197 8.1488 7.1250 -0.0000 -0.0000 0.2958 -47.9042 -0.0212
0.00 0.00 0.00 8.7689 -54.3679 -1.2471 0.0000 0.0000 0.0000 -17.1644 -11.7004 -10.6848 1.3124 7.2564 20.4774 0.5863 7.3994 -19.0158 0.1101 -2.1396 -5.8915 0.0000 0.0000 0.0000 11.9529 13.2821 0.3903 -0.8303 -5.8133 16.2438 -0.5723 -20.0225 -32.2107 -0.0829 -1.8566 5.1097 -6.8559 0.2828 6.9988 -0.6736 -0.7127 -8.3191 3.2424 0.2251 -13.0016 0.2490 -4.8917 -1.1800 -3.1417 -6.4733 2.1384 -1.0620 -3.2700 0.7341 0.0000 0.0000 0.0000 -23.2168 -7.1198 8.0682 137.0927 -49.7011 -99.3700 -0.0000 0.0000 -51.0633 32.3249 -28.4829 -16.7923 -7.1250 0.0000 -0.0000 1.0043 -2.7191 -1.0510 0.0000 0.0000 0.0000 17.8303 -12.5329 -24.7784 -133.6680 51.4046 -96.7248 0.0000 -0.0000 -30.1628 -28.3276 -15.5285 8.2121 7.1250 -0.0000 -0.0000 -0.6479 -47.4976 0.0399
